<?xml version="1.0" encoding="UTF-8" standalone="no"?><!DOCTYPE svg PUBLIC "-//W3C//DTD SVG 1.1//EN" "http://www.w3.org/Graphics/SVG/1.1/DTD/svg11.dtd"><!-- Generated by graphviz version 2.40.1 (20161225.0304)
 --><!-- Title: bank Pages: 1 --><svg xmlns="http://www.w3.org/2000/svg" xmlns:xlink="http://www.w3.org/1999/xlink" width="513pt" height="642pt" viewBox="0.00 0.00 512.52 642.20">
<g id="graph0" class="graph" transform="scale(1 1) rotate(0) translate(4 638.2)">
<title>bank</title>
<polygon fill="#ffffff" stroke="transparent" points="-4,4 -4,-638.2 508.5169,-638.2 508.5169,4 -4,4"/>
<!-- accounts -->
<g id="node1" class="node">
<title>accounts</title>
<polygon fill="none" stroke="#000000" points="167.8359,-347.1 167.8359,-471.9 319.5211,-471.9 319.5211,-347.1 167.8359,-347.1"/>
<text text-anchor="middle" x="243.6785" y="-455.3" font-family="Times,serif" font-size="14.00" fill="#000000">accounts</text>
<polyline fill="none" stroke="#000000" points="167.8359,-447.1 319.5211,-447.1 "/>
<text text-anchor="start" x="175.8359" y="-430.5" font-family="Times,serif" font-size="14.00" fill="#000000">Client_ID : integer</text>
<text text-anchor="start" x="175.8359" y="-413.7" font-family="Times,serif" font-size="14.00" fill="#000000"> Account_Number : text</text>
<text text-anchor="start" x="175.8359" y="-396.9" font-family="Times,serif" font-size="14.00" fill="#000000"> Balance : decimal</text>
<text text-anchor="start" x="175.8359" y="-380.1" font-family="Times,serif" font-size="14.00" fill="#000000"> Account_Type : text</text>
<polyline fill="none" stroke="#000000" points="167.8359,-371.9 319.5211,-371.9 "/>
<text text-anchor="start" x="175.8359" y="-355.3" font-family="Times,serif" font-size="14.00" fill="#000000">Account_ID : integer</text>
</g>
<!-- clients -->
<g id="node3" class="node">
<title>clients</title>
<polygon fill="none" stroke="#000000" points="35.8934,-.5 35.8934,-293.3 191.4636,-293.3 191.4636,-.5 35.8934,-.5"/>
<text text-anchor="middle" x="113.6785" y="-276.7" font-family="Times,serif" font-size="14.00" fill="#000000">clients</text>
<polyline fill="none" stroke="#000000" points="35.8934,-268.5 191.4636,-268.5 "/>
<text text-anchor="start" x="43.8934" y="-251.9" font-family="Times,serif" font-size="14.00" fill="#000000">Name : text</text>
<text text-anchor="start" x="43.8934" y="-235.1" font-family="Times,serif" font-size="14.00" fill="#000000"> Surname : text</text>
<text text-anchor="start" x="43.8934" y="-218.3" font-family="Times,serif" font-size="14.00" fill="#000000"> Middle_Name : text</text>
<text text-anchor="start" x="43.8934" y="-201.5" font-family="Times,serif" font-size="14.00" fill="#000000"> Date_Of_Birth : date</text>
<text text-anchor="start" x="43.8934" y="-184.7" font-family="Times,serif" font-size="14.00" fill="#000000"> Registration_Date : date</text>
<text text-anchor="start" x="43.8934" y="-167.9" font-family="Times,serif" font-size="14.00" fill="#000000"> Email : text</text>
<text text-anchor="start" x="43.8934" y="-151.1" font-family="Times,serif" font-size="14.00" fill="#000000"> Phone_Number : text</text>
<text text-anchor="start" x="43.8934" y="-134.3" font-family="Times,serif" font-size="14.00" fill="#000000"> Address : text</text>
<text text-anchor="start" x="43.8934" y="-117.5" font-family="Times,serif" font-size="14.00" fill="#000000"> Status : text</text>
<text text-anchor="start" x="43.8934" y="-100.7" font-family="Times,serif" font-size="14.00" fill="#000000"> National_ID : text</text>
<text text-anchor="start" x="43.8934" y="-83.9" font-family="Times,serif" font-size="14.00" fill="#000000"> Passport_Number : text</text>
<text text-anchor="start" x="43.8934" y="-67.1" font-family="Times,serif" font-size="14.00" fill="#000000"> Client_Type : text</text>
<text text-anchor="start" x="43.8934" y="-50.3" font-family="Times,serif" font-size="14.00" fill="#000000"> Gender : text</text>
<text text-anchor="start" x="43.8934" y="-33.5" font-family="Times,serif" font-size="14.00" fill="#000000"> Occupation : text</text>
<polyline fill="none" stroke="#000000" points="35.8934,-25.3 191.4636,-25.3 "/>
<text text-anchor="start" x="43.8934" y="-8.7" font-family="Times,serif" font-size="14.00" fill="#000000">Client_ID : integer</text>
</g>
<!-- accounts&#45;&gt;clients -->
<g id="edge1" class="edge">
<title>accounts-&gt;clients</title>
<path fill="none" stroke="#595959" d="M179.6497,-346.9344C179.6497,-346.9344 179.6497,-303.3852 179.6497,-303.3852"/>
<polygon fill="#595959" stroke="#595959" points="183.1498,-303.3851 179.6497,-293.3852 176.1498,-303.3852 183.1498,-303.3851"/>
<text text-anchor="middle" x="226.6736" y="-316" font-family="Times,serif" font-size="14.00" fill="#000000">Client_ID</text>
</g>
<!-- bank_lockers -->
<g id="node2" class="node">
<title>bank_lockers</title>
<polygon fill="none" stroke="#000000" points="0,-347.1 0,-471.9 149.357,-471.9 149.357,-347.1 0,-347.1"/>
<text text-anchor="middle" x="74.6785" y="-455.3" font-family="Times,serif" font-size="14.00" fill="#000000">bank_lockers</text>
<polyline fill="none" stroke="#000000" points="0,-447.1 149.357,-447.1 "/>
<text text-anchor="start" x="8" y="-430.5" font-family="Times,serif" font-size="14.00" fill="#000000">Client_ID : integer</text>
<text text-anchor="start" x="8" y="-413.7" font-family="Times,serif" font-size="14.00" fill="#000000"> Locker_Number : text</text>
<text text-anchor="start" x="8" y="-396.9" font-family="Times,serif" font-size="14.00" fill="#000000"> Location : text</text>
<text text-anchor="start" x="8" y="-380.1" font-family="Times,serif" font-size="14.00" fill="#000000"> Rental_Period : integer</text>
<polyline fill="none" stroke="#000000" points="0,-371.9 149.357,-371.9 "/>
<text text-anchor="start" x="8" y="-355.3" font-family="Times,serif" font-size="14.00" fill="#000000">Locker_ID : integer</text>
</g>
<!-- bank_lockers&#45;&gt;clients -->
<g id="edge2" class="edge">
<title>bank_lockers-&gt;clients</title>
<path fill="none" stroke="#595959" d="M92.6252,-346.9344C92.6252,-346.9344 92.6252,-303.3852 92.6252,-303.3852"/>
<polygon fill="#595959" stroke="#595959" points="96.1253,-303.3851 92.6252,-293.3852 89.1253,-303.3852 96.1253,-303.3851"/>
<text text-anchor="middle" x="102.6736" y="-316" font-family="Times,serif" font-size="14.00" fill="#000000">Client_ID</text>
</g>
<!-- services -->
<g id="node4" class="node">
<title>services</title>
<polygon fill="none" stroke="#000000" points="338.8401,-525.7 338.8401,-633.7 504.5169,-633.7 504.5169,-525.7 338.8401,-525.7"/>
<text text-anchor="middle" x="421.6785" y="-617.1" font-family="Times,serif" font-size="14.00" fill="#000000">services</text>
<polyline fill="none" stroke="#000000" points="338.8401,-608.9 504.5169,-608.9 "/>
<text text-anchor="start" x="346.8401" y="-592.3" font-family="Times,serif" font-size="14.00" fill="#000000">Service_Name : text</text>
<text text-anchor="start" x="346.8401" y="-575.5" font-family="Times,serif" font-size="14.00" fill="#000000"> Service_Description : text</text>
<text text-anchor="start" x="346.8401" y="-558.7" font-family="Times,serif" font-size="14.00" fill="#000000"> Service_Cost : decimal</text>
<polyline fill="none" stroke="#000000" points="338.8401,-550.5 504.5169,-550.5 "/>
<text text-anchor="start" x="346.8401" y="-533.9" font-family="Times,serif" font-size="14.00" fill="#000000">Service_ID : integer</text>
</g>
<!-- transactions -->
<g id="node5" class="node">
<title>transactions</title>
<polygon fill="none" stroke="#000000" points="166.8727,-525.7 166.8727,-633.7 320.4843,-633.7 320.4843,-525.7 166.8727,-525.7"/>
<text text-anchor="middle" x="243.6785" y="-617.1" font-family="Times,serif" font-size="14.00" fill="#000000">transactions</text>
<polyline fill="none" stroke="#000000" points="166.8727,-608.9 320.4843,-608.9 "/>
<text text-anchor="start" x="174.8727" y="-592.3" font-family="Times,serif" font-size="14.00" fill="#000000">Account_ID : integer</text>
<text text-anchor="start" x="174.8727" y="-575.5" font-family="Times,serif" font-size="14.00" fill="#000000"> Amount : decimal</text>
<text text-anchor="start" x="174.8727" y="-558.7" font-family="Times,serif" font-size="14.00" fill="#000000"> Transaction_Date : date</text>
<polyline fill="none" stroke="#000000" points="166.8727,-550.5 320.4843,-550.5 "/>
<text text-anchor="start" x="174.8727" y="-533.9" font-family="Times,serif" font-size="14.00" fill="#000000">Transaction_ID : integer</text>
</g>
<!-- transactions&#45;&gt;accounts -->
<g id="edge3" class="edge">
<title>transactions-&gt;accounts</title>
<path fill="none" stroke="#595959" d="M243.6785,-525.3797C243.6785,-525.3797 243.6785,-482.1945 243.6785,-482.1945"/>
<polygon fill="#595959" stroke="#595959" points="247.1786,-482.1945 243.6785,-472.1945 240.1786,-482.1945 247.1786,-482.1945"/>
<text text-anchor="middle" x="278.2753" y="-494.6" font-family="Times,serif" font-size="14.00" fill="#000000">Account_ID</text>
</g>
</g>
</svg>